<svg version="1.1" id="Слой_1" xmlns="http://www.w3.org/2000/svg" xmlns:xlink="http://www.w3.org/1999/xlink" x="0px" y="0px" viewBox="0 0 60 51.1" style="enable-background:new 0 0 60 51.1;" xml:space="preserve"><style type="text/css">.st0{fill:none;stroke:#f58220;stroke-width:2;stroke-linecap:round;stroke-linejoin:round;}</style><path class="st0" d="M3,10.1h40c1.1,0,2,0.9,2,2v23c0,1.1-0.9,2-2,2H3c-1.1,0-2-0.9-2-2v-23C1,11,1.9,10.1,3,10.1z"/><path class="st0" d="M45,11.1v21c0,0.6-0.4,1-1,1H2c-0.6,0-1-0.4-1-1v-21c0-0.6,0.4-1,1-1h42C44.6,10.1,45,10.5,45,11.1z"/><path class="st0" d="M29,43.1h2.5c0.7,0,1.3,0.4,1.7,1l1.6,3c0.5,1,0.2,2.2-0.8,2.7c-0.3,0.2-0.6,0.2-0.9,0.3H12.9 c-1.1,0-2-1-1.9-2.1c0-0.3,0.1-0.6,0.3-0.9l1.6-3c0.3-0.6,1-1,1.7-1H17"/><path class="st0" d="M39,37.1v11c0,1.1,0.9,2,2,2h16c1.1,0,2-0.9,2-2v-45c0-1.1-0.9-2-2-2H41c-1.1,0-2,0.9-2,2V10"/><path class="st0" d="M17,37.1h12l0,0v8c0,0.6-0.4,1-1,1H18c-0.6,0-1-0.4-1-1V37.1L17,37.1z"/><rect x="43" y="5.1" class="st0" width="12" height="5"/><rect x="45" y="14.1" class="st0" width="10" height="5"/><line class="st0" x1="45" y1="23.1" x2="55" y2="23.1"/><line class="st0" x1="45" y1="27.1" x2="55" y2="27.1"/><line class="st0" x1="45" y1="31.1" x2="55" y2="31.1"/><line class="st0" x1="45" y1="35.1" x2="55" y2="35.1"/><circle class="st0" cx="51" cy="43.1" r="3"/><line class="st0" x1="44" y1="43.1" x2="44" y2="44.1"/><line class="st0" x1="5" y1="16.1" x2="7" y2="14.1"/><line class="st0" x1="7" y1="20.1" x2="13" y2="14.1"/></svg>