<svg version="1.1" id="Слой_1" xmlns="http://www.w3.org/2000/svg" xmlns:xlink="http://www.w3.org/1999/xlink" x="0px" y="0px" viewBox="0 0 28 27" style="enable-background:new 0 0 28 27;" xml:space="preserve"><g transform="translate(-210 -260)"><g><path d="M232,263h-18v5h18V263z M231,267h-16v-3h16V267z" fill="#f58220"/><rect x="216" y="265" width="1" height="1" fill="#f58220"/><rect x="218" y="265" width="1" height="1" fill="#f58220"/><rect x="220" y="265" width="1" height="1" fill="#f58220"/><rect x="216" y="272" width="1" height="1" fill="#f58220"/><rect x="218" y="272" width="1" height="1" fill="#f58220"/><rect x="220" y="272" width="1" height="1" fill="#f58220"/><path d="M235,273.5V260h-24v18h12.1c-0.1,0.5-0.1,1-0.1,1.5c0,0.2,0,0.3,0,0.5h-2v1h-11v1h11v1h2.9c1.3,2.4,3.8,4,6.6,4 c4.1,0,7.5-3.4,7.5-7.5C238,277,236.8,274.9,235,273.5z M212,277v-16h22v11.9c-0.6-0.3-1.3-0.6-2-0.7V270h-18v5h10.5 c-0.5,0.6-0.8,1.3-1.1,2H212z M215,274v-3h16v1c-0.2,0-0.3,0-0.5,0c-2,0-3.8,0.8-5.1,2H215z M222,282v-1h1.1 c0.1,0.3,0.2,0.7,0.3,1H222z M230.5,286c-3.6,0-6.5-2.9-6.5-6.5s2.9-6.5,6.5-6.5s6.5,2.9,6.5,6.5S234.1,286,230.5,286z" fill="#f58220"/><polygon points="232.2,280.1 235,278 231.6,278 230.5,274.8 229.4,278 226,278 228.8,280.1 227.7,283.3 230.5,281.3 233.3,283.3" fill="#f58220"/></g></g></svg>