<svg version="1.1" id="Слой_1" xmlns="http://www.w3.org/2000/svg" xmlns:xlink="http://www.w3.org/1999/xlink" x="0px" y="0px" viewBox="0 0 60 60" style="enable-background:new 0 0 60 60;" xml:space="preserve"><style type="text/css">.st0{fill:none;stroke:#f58220;stroke-width:2;stroke-linecap:round;stroke-linejoin:round;}.st1{fill:none;stroke:#f58220;stroke-width:2;stroke-linejoin:round;}</style><path class="st0" d="M52,1H8C6.9,1,6,1.9,6,3v28c0,1.1,0.9,2,2,2h44c1.1,0,2-0.9,2-2V3C54,1.9,53.1,1,52,1z M35.5,25 c-1.4,0-2.5-1.1-2.5-2.5c0-1.4,1.1-2.5,2.5-2.5c0.6,0,1.3,0.2,1.7,0.7c0.5,0.5,0.8,1.1,0.8,1.8C38,23.9,36.9,25,35.5,25z"/><path class="st0" d="M50,6v22c0,0.6-0.4,1-1,1H11c-0.6,0-1-0.4-1-1V6c0-0.6,0.4-1,1-1h38C49.6,5,50,5.4,50,6z"/><path class="st0" d="M37,53h19.9c1.1,0,2-0.9,2-2c0-0.2,0-0.5-0.1-0.7L52.6,33H7.4L1.1,50.3c-0.4,1,0.2,2.2,1.2,2.6 C2.6,53,2.8,53,3.1,53H23"/><path class="st0" d="M59,51v5c0,1.7-1.3,3-3,3c0,0,0,0,0,0H4c-1.7,0-3-1.3-3-3c0,0,0,0,0,0v-5"/><path class="st0" d="M37,53v1c0,0.6-0.4,1-1,1H24c-0.6,0-1-0.4-1-1v-1"/><path class="st0" d="M35.5,42H24.5c-0.5,0-0.9,0.3-1,0.7l-1.5,5c-0.1,0.5,0.2,1.1,0.7,1.2c0.1,0,0.2,0,0.3,0H37c0.6,0,1-0.4,1-1 c0-0.1,0-0.2,0-0.3l-1.5-5C36.3,42.3,35.9,42,35.5,42z"/><line class="st1" x1="4" y1="42" x2="56" y2="42"/><circle class="st0" cx="16.5" cy="22.5" r="2.5"/><circle class="st0" cx="25.5" cy="14.5" r="2.5"/><circle class="st0" cx="43.5" cy="11.5" r="2.5"/><line class="st0" x1="23.7" y1="16.2" x2="18.3" y2="20.8"/><line class="st0" x1="33.3" y1="21.4" x2="27.3" y2="16.3"/><line class="st0" x1="42" y1="13.5" x2="37.2" y2="20.7"/></svg>