<svg version="1.1" xmlns="http://www.w3.org/2000/svg" xmlns:xlink="http://www.w3.org/1999/xlink" x="0px" y="0px" viewBox="0 0 805.7 243.8" xml:space="preserve"><path d="M750.7,96.2H582l-25.9,44.9h168.6L750.7,96.2z M55.1,96.2h168.6l25.9,44.9H81L55.1,96.2z M352,243.8h101.7h0 C497.6,167.5,537,97.1,560.4,62.6c9.2-13.6,33.7-17.3,51.6-17.3h168.2l25.6-44.4c-185-0.2-187-0.5-233-0.6 c-40.8-0.1-63.2-3.1-82,13.6c-16.1,14.3-43.6,62.8-87.8,140.9c-44.2-78-71.7-126.5-87.8-140.9C296.2-2.8,273.8,0.2,233,0.3 C187,0.3,185,0.6,0,0.8l25.6,44.4h168.2c17.9,0,42.4,3.8,51.6,17.3C268.8,97.1,308.2,167.5,352,243.8L352,243.8z" fill="#333333"/></svg>
