<svg version="1.1" xmlns:cc="http://creativecommons.org/ns#" xmlns:dc="http://purl.org/dc/elements/1.1/" xmlns:inkscape="http://www.inkscape.org/namespaces/inkscape" xmlns:rdf="http://www.w3.org/1999/02/22-rdf-syntax-ns#" xmlns:sodipodi="http://sodipodi.sourceforge.net/DTD/sodipodi-0.dtd" xmlns:svg="http://www.w3.org/2000/svg" xmlns="http://www.w3.org/2000/svg" xmlns:xlink="http://www.w3.org/1999/xlink" x="0px" y="0px" viewBox="0 0 60 38" xml:space="preserve"><g transform="translate(0,-952.36218)"><path d="M0,971.3c0,0.5,0.3,1.1,0.6,1.4l16,17c0.7,0.8,2,0.9,2.8,0.1c0.8-0.7,0.8-2.1,0.1-2.8L6.6,973.3H58c1.1,0,2-0.9,2-2 c0-1.1-0.9-2-2-2H6.6l12.8-13.6c0.7-0.8,0.7-2.1-0.1-2.8c-0.8-0.8-2.1-0.7-2.8,0.1l-16,17C0.1,970.4,0,970.8,0,971.3z" fill="#757576"/></g></svg>