<svg version="1.1" xmlns:cc="http://creativecommons.org/ns#" xmlns:dc="http://purl.org/dc/elements/1.1/" xmlns:inkscape="http://www.inkscape.org/namespaces/inkscape" xmlns:rdf="http://www.w3.org/1999/02/22-rdf-syntax-ns#" xmlns:sodipodi="http://sodipodi.sourceforge.net/DTD/sodipodi-0.dtd" xmlns:svg="http://www.w3.org/2000/svg" xmlns="http://www.w3.org/2000/svg" xmlns:xlink="http://www.w3.org/1999/xlink" x="0px" y="0px" viewBox="0 0 59.5 38" xml:space="preserve"><g transform="translate(0,-952.36218)"><path d="M60,971.4c0-0.5-0.3-1.1-0.6-1.4l-16-17c-0.7-0.8-2-0.9-2.8-0.1c-0.8,0.7-0.8,2.1-0.1,2.8l12.9,13.7H2c-1.1,0-2,0.9-2,2 c0,1.1,0.9,2,2,2h51.4L40.6,987c-0.7,0.8-0.7,2.1,0.1,2.8c0.8,0.8,2.1,0.7,2.8-0.1l16-17C59.9,972.3,60,971.9,60,971.4z" fill="#757576"/></g></svg>
