<svg version="1.1" xmlns:cc="http://creativecommons.org/ns#" xmlns:dc="http://purl.org/dc/elements/1.1/" xmlns:inkscape="http://www.inkscape.org/namespaces/inkscape" xmlns:rdf="http://www.w3.org/1999/02/22-rdf-syntax-ns#" xmlns:sodipodi="http://sodipodi.sourceforge.net/DTD/sodipodi-0.dtd" xmlns:svg="http://www.w3.org/2000/svg" xmlns="http://www.w3.org/2000/svg" xmlns:xlink="http://www.w3.org/1999/xlink" x="0px" y="0px" viewBox="0 0 38 60" xml:space="preserve"><g transform="translate(0,-952.36218)"><path d="M19,1012.4c0.5,0,1.1-0.3,1.4-0.6l17-16c0.8-0.7,0.9-2,0.1-2.8c-0.7-0.8-2.1-0.8-2.8-0.1L21,1005.7v-51.4c0-1.1-0.9-2-2-2 s-2,0.9-2,2v51.4L3.4,992.9c-0.8-0.7-2.1-0.7-2.8,0.1c-0.8,0.8-0.7,2.1,0.1,2.8l17,16C18.1,1012.3,18.5,1012.4,19,1012.4z" fill="#f58220"/></g></svg>
